none
1
   1.488909E+01   4.938444E+01
   1.489244E+01   4.939450E+01
   1.490042E+01   4.940100E+01
   1.490089E+01   4.941388E+01
   1.490746E+01   4.942077E+01
   1.490008E+01   4.942167E+01
   1.489870E+01   4.942772E+01
   1.492441E+01   4.945771E+01
   1.492467E+01   4.946157E+01
   1.492252E+01   4.946846E+01
   1.491669E+01   4.947448E+01
   1.492518E+01   4.948204E+01
   1.492570E+01   4.948290E+01
   1.492832E+01   4.948299E+01
   1.492969E+01   4.948315E+01
   1.493042E+01   4.948371E+01
   1.492712E+01   4.948706E+01
   1.492280E+01   4.950279E+01
   1.491746E+01   4.950590E+01
   1.490008E+01   4.951459E+01
   1.490154E+01   4.951888E+01
   1.490497E+01   4.952290E+01
   1.494268E+01   4.952672E+01
   1.493776E+01   4.952983E+01
   1.492652E+01   4.954164E+01
   1.492862E+01   4.954780E+01
   1.493042E+01   4.955086E+01
   1.492956E+01   4.955570E+01
   1.493329E+01   4.955865E+01
   1.494278E+01   4.955938E+01
   1.493480E+01   4.956737E+01
   1.493887E+01   4.958061E+01
   1.496122E+01   4.957981E+01
   1.496238E+01   4.957944E+01
   1.496352E+01   4.957917E+01
   1.496448E+01   4.957889E+01
   1.496565E+01   4.957878E+01
   1.496899E+01   4.957878E+01
   1.498933E+01   4.958296E+01
   1.496687E+01   4.959674E+01
   1.497454E+01   4.960470E+01
   1.499705E+01   4.960941E+01
   1.500344E+01   4.960800E+01
   1.500797E+01   4.960367E+01
   1.500990E+01   4.960137E+01
   1.501258E+01   4.960028E+01
   1.501361E+01   4.960088E+01
   1.501595E+01   4.960073E+01
   1.502209E+01   4.959929E+01
   1.503649E+01   4.960205E+01
   1.504571E+01   4.960071E+01
   1.505337E+01   4.959599E+01
   1.511799E+01   4.961178E+01
   1.512011E+01   4.960821E+01
   1.512388E+01   4.960392E+01
   1.513890E+01   4.960481E+01
   1.514380E+01   4.960381E+01
   1.514800E+01   4.960198E+01
   1.515397E+01   4.959625E+01
   1.516327E+01   4.959087E+01
   1.516242E+01   4.959636E+01
   1.516873E+01   4.960537E+01
   1.516885E+01   4.961452E+01
   1.517744E+01   4.961655E+01
   1.518336E+01   4.961961E+01
   1.518877E+01   4.962039E+01
   1.520293E+01   4.961605E+01
   1.522735E+01   4.961625E+01
   1.522868E+01   4.961972E+01
   1.523847E+01   4.962700E+01
   1.524293E+01   4.963890E+01
   1.524772E+01   4.964274E+01
   1.523460E+01   4.965485E+01
   1.518312E+01   4.966673E+01
   1.517907E+01   4.967601E+01
   1.517675E+01   4.969634E+01
   1.518096E+01   4.971099E+01
   1.520516E+01   4.972498E+01
   1.521469E+01   4.973008E+01
   1.521358E+01   4.973968E+01
   1.522284E+01   4.974362E+01
   1.521821E+01   4.974867E+01
   1.522413E+01   4.975748E+01
   1.524937E+01   4.976441E+01
   1.525443E+01   4.976425E+01
   1.525718E+01   4.975632E+01
   1.526241E+01   4.975604E+01
   1.527065E+01   4.975693E+01
   1.528344E+01   4.976569E+01
   1.529932E+01   4.976907E+01
   1.531271E+01   4.976763E+01
   1.533597E+01   4.977611E+01
   1.534738E+01   4.977206E+01
   1.535859E+01   4.977974E+01
   1.536713E+01   4.978096E+01
   1.536726E+01   4.978248E+01
   1.536923E+01   4.978470E+01
   1.536970E+01   4.978628E+01
   1.536966E+01   4.978927E+01
   1.538147E+01   4.980123E+01
   1.538906E+01   4.980052E+01
   1.542289E+01   4.979369E+01
   1.543308E+01   4.980435E+01
   1.541820E+01   4.981500E+01
   1.541210E+01   4.982298E+01
   1.542034E+01   4.983389E+01
   1.544589E+01   4.984660E+01
   1.547360E+01   4.984366E+01
   1.547450E+01   4.984537E+01
   1.547437E+01   4.984806E+01
   1.547372E+01   4.984861E+01
   1.547368E+01   4.984887E+01
   1.547326E+01   4.985015E+01
   1.547362E+01   4.985073E+01
   1.547457E+01   4.985109E+01
   1.547622E+01   4.985161E+01
   1.547873E+01   4.985247E+01
   1.548263E+01   4.985388E+01
   1.549456E+01   4.986047E+01
   1.549542E+01   4.986045E+01
   1.549626E+01   4.986083E+01
   1.549691E+01   4.986130E+01
   1.549748E+01   4.986119E+01
   1.550197E+01   4.985907E+01
   1.550806E+01   4.985755E+01
   1.552111E+01   4.985301E+01
   1.552832E+01   4.984734E+01
   1.554110E+01   4.984255E+01
   1.554956E+01   4.983934E+01
   1.556110E+01   4.983350E+01
   1.556836E+01   4.982791E+01
   1.557278E+01   4.983004E+01
   1.557664E+01   4.982863E+01
   1.559222E+01   4.981830E+01
   1.559515E+01   4.981271E+01
   1.561518E+01   4.981138E+01
   1.563912E+01   4.981622E+01
   1.564037E+01   4.981439E+01
   1.563895E+01   4.981088E+01
   1.564724E+01   4.980839E+01
   1.565389E+01   4.980853E+01
   1.565831E+01   4.981182E+01
   1.565869E+01   4.981506E+01
   1.566226E+01   4.981766E+01
   1.567513E+01   4.981068E+01
   1.568298E+01   4.981279E+01
   1.569169E+01   4.980877E+01
   1.569573E+01   4.980503E+01
   1.569573E+01   4.980312E+01
   1.570092E+01   4.980105E+01
   1.570865E+01   4.980481E+01
   1.571212E+01   4.980063E+01
   1.571938E+01   4.979359E+01
   1.572907E+01   4.978872E+01
   1.573534E+01   4.978259E+01
   1.573931E+01   4.978133E+01
   1.575521E+01   4.978345E+01
   1.576989E+01   4.977921E+01
   1.577311E+01   4.977880E+01
   1.577697E+01   4.978185E+01
   1.578375E+01   4.978029E+01
   1.577641E+01   4.975725E+01
   1.579401E+01   4.976056E+01
   1.579761E+01   4.976000E+01
   1.580735E+01   4.975906E+01
   1.582212E+01   4.975363E+01
   1.582383E+01   4.975277E+01
   1.582997E+01   4.974437E+01
   1.584559E+01   4.974123E+01
   1.585134E+01   4.973857E+01
   1.585765E+01   4.974087E+01
   1.586314E+01   4.974514E+01
   1.586563E+01   4.974426E+01
   1.586670E+01   4.973194E+01
   1.585014E+01   4.971954E+01
   1.585074E+01   4.971826E+01
   1.586112E+01   4.971166E+01
   1.587400E+01   4.970550E+01
   1.590614E+01   4.969878E+01
   1.590743E+01   4.969506E+01
   1.593078E+01   4.968926E+01
   1.595686E+01   4.969172E+01
   1.595153E+01   4.970300E+01
   1.596936E+01   4.970439E+01
   1.597028E+01   4.972016E+01
   1.598180E+01   4.972875E+01
   1.599420E+01   4.973369E+01
   1.599455E+01   4.973907E+01
   1.600172E+01   4.973985E+01
   1.601068E+01   4.973854E+01
   1.601056E+01   4.973152E+01
   1.602126E+01   4.971817E+01
   1.603450E+01   4.971757E+01
   1.603648E+01   4.971532E+01
   1.604824E+01   4.971272E+01
   1.605236E+01   4.971682E+01
   1.605897E+01   4.971605E+01
   1.606562E+01   4.971449E+01
   1.607012E+01   4.971388E+01
   1.607750E+01   4.971149E+01
   1.608330E+01   4.970783E+01
   1.609034E+01   4.970189E+01
   1.610098E+01   4.968504E+01
   1.610169E+01   4.968396E+01
   1.610300E+01   4.968350E+01
   1.610411E+01   4.968450E+01
   1.610527E+01   4.968525E+01
   1.610688E+01   4.968528E+01
   1.610840E+01   4.968515E+01
   1.610868E+01   4.968555E+01
   1.610830E+01   4.968629E+01
   1.610956E+01   4.968748E+01
   1.611394E+01   4.968834E+01
   1.611662E+01   4.968825E+01
   1.612804E+01   4.968837E+01
   1.613926E+01   4.969169E+01
   1.614909E+01   4.968612E+01
   1.615334E+01   4.967913E+01
   1.615990E+01   4.968229E+01
   1.616887E+01   4.968246E+01
   1.617308E+01   4.968035E+01
   1.618466E+01   4.967513E+01
   1.618792E+01   4.967802E+01
   1.619126E+01   4.967809E+01
   1.619399E+01   4.967851E+01
   1.619539E+01   4.967720E+01
   1.619620E+01   4.967581E+01
   1.620344E+01   4.967100E+01
   1.620468E+01   4.967000E+01
   1.620576E+01   4.966707E+01
   1.621097E+01   4.966748E+01
   1.622052E+01   4.966706E+01
   1.623616E+01   4.966228E+01
   1.624524E+01   4.965913E+01
   1.626165E+01   4.964429E+01
   1.627543E+01   4.964023E+01
   1.627363E+01   4.963000E+01
   1.628384E+01   4.962675E+01
   1.628972E+01   4.962083E+01
   1.630264E+01   4.962428E+01
   1.634830E+01   4.961355E+01
   1.635847E+01   4.960245E+01
   1.637206E+01   4.960311E+01
   1.639186E+01   4.958106E+01
   1.639478E+01   4.957791E+01
   1.639155E+01   4.955927E+01
   1.638319E+01   4.955498E+01
   1.637537E+01   4.955234E+01
   1.637800E+01   4.954780E+01
   1.638302E+01   4.954362E+01
   1.638925E+01   4.954028E+01
   1.640996E+01   4.954049E+01
   1.641563E+01   4.953340E+01
   1.641962E+01   4.952462E+01
   1.641053E+01   4.951013E+01
   1.639688E+01   4.950119E+01
   1.638576E+01   4.949213E+01
   1.636250E+01   4.949074E+01
   1.637212E+01   4.948441E+01
   1.638220E+01   4.948486E+01
   1.639006E+01   4.947602E+01
   1.639121E+01   4.947055E+01
   1.637675E+01   4.946377E+01
   1.638615E+01   4.945632E+01
   1.638019E+01   4.945069E+01
   1.636765E+01   4.944837E+01
   1.636246E+01   4.945183E+01
   1.635847E+01   4.945114E+01
   1.635602E+01   4.944807E+01
   1.635095E+01   4.944716E+01
   1.634478E+01   4.946003E+01
   1.635023E+01   4.946734E+01
   1.633658E+01   4.946740E+01
   1.633272E+01   4.947044E+01
   1.632895E+01   4.946712E+01
   1.631689E+01   4.946436E+01
   1.631397E+01   4.945811E+01
   1.630057E+01   4.945040E+01
   1.630094E+01   4.944925E+01
   1.630443E+01   4.944934E+01
   1.630591E+01   4.944925E+01
   1.630676E+01   4.944916E+01
   1.630781E+01   4.944934E+01
   1.630845E+01   4.944932E+01
   1.630902E+01   4.944918E+01
   1.631084E+01   4.944987E+01
   1.631149E+01   4.945043E+01
   1.631324E+01   4.945012E+01
   1.631412E+01   4.944949E+01
   1.631483E+01   4.944863E+01
   1.631722E+01   4.944884E+01
   1.631875E+01   4.944907E+01
   1.632025E+01   4.944991E+01
   1.632124E+01   4.944992E+01
   1.632247E+01   4.945011E+01
   1.632572E+01   4.944985E+01
   1.632850E+01   4.944839E+01
   1.633455E+01   4.944686E+01
   1.633673E+01   4.943970E+01
   1.632970E+01   4.943106E+01
   1.632186E+01   4.942906E+01
   1.629270E+01   4.942711E+01
   1.628667E+01   4.943187E+01
   1.627558E+01   4.942954E+01
   1.626588E+01   4.942677E+01
   1.626243E+01   4.942186E+01
   1.626127E+01   4.941719E+01
   1.625614E+01   4.941432E+01
   1.625886E+01   4.941121E+01
   1.626009E+01   4.940528E+01
   1.625490E+01   4.940371E+01
   1.624204E+01   4.940188E+01
   1.623494E+01   4.939194E+01
   1.623003E+01   4.939177E+01
   1.623342E+01   4.938596E+01
   1.623348E+01   4.938399E+01
   1.623497E+01   4.938258E+01
   1.623640E+01   4.938116E+01
   1.623601E+01   4.937943E+01
   1.623607E+01   4.937786E+01
   1.623804E+01   4.937669E+01
   1.623305E+01   4.936767E+01
   1.622706E+01   4.936033E+01
   1.622492E+01   4.935985E+01
   1.622382E+01   4.936041E+01
   1.622286E+01   4.935936E+01
   1.621902E+01   4.935342E+01
   1.622696E+01   4.934903E+01
   1.622852E+01   4.935026E+01
   1.622992E+01   4.935004E+01
   1.623526E+01   4.935065E+01
   1.623713E+01   4.934958E+01
   1.623947E+01   4.934593E+01
   1.624666E+01   4.934277E+01
   1.625352E+01   4.934036E+01
   1.625801E+01   4.933752E+01
   1.626796E+01   4.933634E+01
   1.627200E+01   4.933480E+01
   1.627348E+01   4.933286E+01
   1.627296E+01   4.933149E+01
   1.626899E+01   4.933053E+01
   1.626695E+01   4.933114E+01
   1.624814E+01   4.933006E+01
   1.624080E+01   4.932771E+01
   1.624339E+01   4.932466E+01
   1.625620E+01   4.932256E+01
   1.627026E+01   4.931907E+01
   1.627826E+01   4.932153E+01
   1.628740E+01   4.932240E+01
   1.629296E+01   4.931915E+01
   1.629629E+01   4.931229E+01
   1.629058E+01   4.930796E+01
   1.628491E+01   4.930229E+01
   1.628073E+01   4.929671E+01
   1.627268E+01   4.929344E+01
   1.626049E+01   4.929094E+01
   1.625755E+01   4.928290E+01
   1.625766E+01   4.927751E+01
   1.627122E+01   4.927170E+01
   1.627552E+01   4.927071E+01
   1.627817E+01   4.927033E+01
   1.627805E+01   4.926836E+01
   1.628314E+01   4.926743E+01
   1.628918E+01   4.926411E+01
   1.629041E+01   4.925655E+01
   1.627109E+01   4.925136E+01
   1.625555E+01   4.925226E+01
   1.624462E+01   4.923517E+01
   1.623839E+01   4.922494E+01
   1.623730E+01   4.921304E+01
   1.624646E+01   4.921210E+01
   1.625959E+01   4.920978E+01
   1.627517E+01   4.920148E+01
   1.627285E+01   4.919500E+01
   1.626942E+01   4.918574E+01
   1.627650E+01   4.918440E+01
   1.627212E+01   4.917685E+01
   1.625736E+01   4.917393E+01
   1.623512E+01   4.917303E+01
   1.623050E+01   4.916380E+01
   1.623865E+01   4.915811E+01
   1.624766E+01   4.914497E+01
   1.623462E+01   4.913542E+01
   1.621840E+01   4.913416E+01
   1.621033E+01   4.913753E+01
   1.620654E+01   4.913441E+01
   1.624462E+01   4.911470E+01
   1.625659E+01   4.910945E+01
   1.625633E+01   4.910579E+01
   1.624972E+01   4.910110E+01
   1.624702E+01   4.909925E+01
   1.623857E+01   4.909767E+01
   1.622214E+01   4.909623E+01
   1.621835E+01   4.909306E+01
   1.622797E+01   4.908716E+01
   1.622758E+01   4.908286E+01
   1.621140E+01   4.907117E+01
   1.617943E+01   4.906872E+01
   1.613960E+01   4.906708E+01
   1.613295E+01   4.905792E+01
   1.613960E+01   4.905461E+01
   1.614874E+01   4.904743E+01
   1.611750E+01   4.903517E+01
   1.610857E+01   4.903939E+01
   1.610364E+01   4.903896E+01
   1.609973E+01   4.903556E+01
   1.608749E+01   4.903746E+01
   1.608862E+01   4.903131E+01
   1.608694E+01   4.902939E+01
   1.603634E+01   4.904121E+01
   1.603390E+01   4.903536E+01
   1.602472E+01   4.903323E+01
   1.602266E+01   4.902858E+01
   1.601021E+01   4.902647E+01
   1.599390E+01   4.902754E+01
   1.596711E+01   4.903817E+01
   1.596078E+01   4.905469E+01
   1.591817E+01   4.902757E+01
   1.590915E+01   4.902796E+01
   1.590022E+01   4.903111E+01
   1.588642E+01   4.903719E+01
   1.588915E+01   4.903202E+01
   1.588571E+01   4.902909E+01
   1.588203E+01   4.901423E+01
   1.587682E+01   4.900743E+01
   1.586632E+01   4.900618E+01
   1.584752E+01   4.901074E+01
   1.582769E+01   4.900607E+01
   1.581915E+01   4.900883E+01
   1.580667E+01   4.899402E+01
   1.579323E+01   4.898292E+01
   1.578057E+01   4.897920E+01
   1.575989E+01   4.897870E+01
   1.575637E+01   4.896585E+01
   1.574727E+01   4.896692E+01
   1.573920E+01   4.895035E+01
   1.573149E+01   4.894564E+01
   1.572650E+01   4.894832E+01
   1.570439E+01   4.896625E+01
   1.568942E+01   4.896337E+01
   1.568255E+01   4.896010E+01
   1.567792E+01   4.896089E+01
   1.567766E+01   4.896275E+01
   1.566504E+01   4.896320E+01
   1.566599E+01   4.895306E+01
   1.565826E+01   4.894669E+01
   1.564848E+01   4.893620E+01
   1.562350E+01   4.894060E+01
   1.561099E+01   4.895760E+01
   1.560488E+01   4.895379E+01
   1.558617E+01   4.894601E+01
   1.557134E+01   4.895577E+01
   1.557793E+01   4.896410E+01
   1.554574E+01   4.897199E+01
   1.552239E+01   4.897430E+01
   1.551922E+01   4.897898E+01
   1.552162E+01   4.898134E+01
   1.552580E+01   4.899383E+01
   1.549253E+01   4.898816E+01
   1.548512E+01   4.899647E+01
   1.549132E+01   4.900545E+01
   1.550334E+01   4.901046E+01
   1.550755E+01   4.901772E+01
   1.551604E+01   4.902183E+01
   1.552566E+01   4.904029E+01
   1.554392E+01   4.904374E+01
   1.553838E+01   4.906033E+01
   1.555348E+01   4.906282E+01
   1.555115E+01   4.907117E+01
   1.555163E+01   4.907813E+01
   1.558385E+01   4.907404E+01
   1.559226E+01   4.907493E+01
   1.559612E+01   4.907741E+01
   1.559329E+01   4.908084E+01
   1.558943E+01   4.908477E+01
   1.559818E+01   4.908595E+01
   1.560157E+01   4.908825E+01
   1.558014E+01   4.909750E+01
   1.558648E+01   4.910381E+01
   1.557383E+01   4.910068E+01
   1.556600E+01   4.910557E+01
   1.555518E+01   4.911057E+01
   1.554686E+01   4.911585E+01
   1.556625E+01   4.912107E+01
   1.556456E+01   4.912755E+01
   1.555144E+01   4.912403E+01
   1.554562E+01   4.913384E+01
   1.554003E+01   4.912678E+01
   1.553656E+01   4.912447E+01
   1.553497E+01   4.912442E+01
   1.551641E+01   4.912971E+01
   1.550351E+01   4.911784E+01
   1.549330E+01   4.911897E+01
   1.546978E+01   4.912237E+01
   1.546866E+01   4.911860E+01
   1.545497E+01   4.912141E+01
   1.545150E+01   4.912540E+01
   1.544090E+01   4.913121E+01
   1.543231E+01   4.912801E+01
   1.542433E+01   4.911647E+01
   1.541832E+01   4.912082E+01
   1.541867E+01   4.912484E+01
   1.541017E+01   4.912675E+01
   1.539901E+01   4.913144E+01
   1.538373E+01   4.913321E+01
   1.537653E+01   4.913854E+01
   1.537846E+01   4.914244E+01
   1.537279E+01   4.914820E+01
   1.536404E+01   4.914755E+01
   1.535464E+01   4.915157E+01
   1.533523E+01   4.916615E+01
   1.534777E+01   4.919130E+01
   1.534421E+01   4.919929E+01
   1.534142E+01   4.920501E+01
   1.534305E+01   4.921505E+01
   1.534064E+01   4.921677E+01
   1.533395E+01   4.921746E+01
   1.531391E+01   4.921429E+01
   1.530640E+01   4.921252E+01
   1.530185E+01   4.921454E+01
   1.529297E+01   4.921645E+01
   1.528623E+01   4.921409E+01
   1.528065E+01   4.920969E+01
   1.527151E+01   4.921014E+01
   1.526517E+01   4.921286E+01
   1.525877E+01   4.920720E+01
   1.525237E+01   4.920593E+01
   1.525121E+01   4.920714E+01
   1.525070E+01   4.921886E+01
   1.522383E+01   4.922404E+01
   1.520461E+01   4.922547E+01
   1.519490E+01   4.923416E+01
   1.519195E+01   4.923069E+01
   1.517697E+01   4.922118E+01
   1.516671E+01   4.921547E+01
   1.513822E+01   4.922071E+01
   1.513431E+01   4.923074E+01
   1.512281E+01   4.924736E+01
   1.509882E+01   4.924002E+01
   1.508041E+01   4.924604E+01
   1.507273E+01   4.925265E+01
   1.507655E+01   4.925296E+01
   1.509936E+01   4.925053E+01
   1.509736E+01   4.925974E+01
   1.510328E+01   4.926582E+01
   1.510118E+01   4.926940E+01
   1.509393E+01   4.927018E+01
   1.508260E+01   4.927122E+01
   1.506766E+01   4.927150E+01
   1.506131E+01   4.927189E+01
   1.504698E+01   4.927811E+01
   1.504312E+01   4.928326E+01
   1.503074E+01   4.929448E+01
   1.500690E+01   4.928553E+01
   1.499153E+01   4.927455E+01
   1.497711E+01   4.927674E+01
   1.496733E+01   4.928771E+01
   1.495243E+01   4.929342E+01
   1.494338E+01   4.930411E+01
   1.492325E+01   4.930988E+01
   1.492724E+01   4.931679E+01
   1.490197E+01   4.933211E+01
   1.491175E+01   4.934453E+01
   1.492248E+01   4.935205E+01
   1.492463E+01   4.935409E+01
   1.492322E+01   4.936205E+01
   1.491242E+01   4.936648E+01
   1.491073E+01   4.936690E+01
   1.491033E+01   4.936702E+01
   1.490983E+01   4.936711E+01
   1.490952E+01   4.936750E+01
   1.490893E+01   4.936756E+01
   1.490789E+01   4.936785E+01
   1.490536E+01   4.936865E+01
   1.489128E+01   4.937301E+01
   1.488686E+01   4.937542E+01
   1.488909E+01   4.938444E+01
END
END
